# File produced by Open Asset Import Library (http://www.assimp.sf.net)
# (assimp v3.1.151580502)

mtllib EHBO Doos.mtl

# 40 vertex positions
v  -102.786 -58.3909 100
v  102.786 -58.3909 100
v  102.786 246.913 100
v  -102.786 246.913 100
v  110.786 -58.3909 92
v  110.786 -58.3909 -33.3389
v  110.786 246.913 -33.3389
v  110.786 246.913 92
v  -102.786 -66.3909 -33.3389
v  102.786 -66.3909 -33.3389
v  102.786 -66.3909 92
v  -102.786 -66.3909 92
v  -110.786 -58.3909 -33.3389
v  -110.786 -58.3909 92
v  -110.786 246.913 92
v  -110.786 246.913 -33.3389
v  -102.786 254.913 92
v  102.786 254.913 92
v  102.786 254.913 -33.3389
v  -102.786 254.913 -33.3389
v  -108.443 246.913 97.6569
v  -108.443 -58.3909 97.6569
v  102.786 252.57 97.6569
v  -102.786 252.57 97.6569
v  108.443 246.913 97.6569
v  108.443 -58.3909 97.6569
v  102.786 -64.0477 97.6569
v  -102.786 -64.0477 97.6569
v  108.119 252.247 -36.0056
v  108.443 252.57 92
v  108.119 -63.7242 -36.0056
v  108.443 -64.0477 92
v  -108.119 -63.7242 -36.0056
v  -108.443 -64.0477 92
v  -108.119 252.247 -36.0056
v  -108.443 252.57 92
v  -107.576 251.703 96.7903
v  -107.576 -63.1812 96.7903
v  107.576 -63.1812 96.7903
v  107.576 251.703 96.7903

# 60 UV coordinates
vt 0.0116826 0.309406 0
vt 0.436233 0.309406 0
vt 0.436233 0.987437 0
vt 0.0116826 0.987437 0
vt 0.735641 0.309406 0
vt 0.994493 0.309406 0
vt 0.994493 0.987437 0
vt 0.735641 0.987437 0
vt 0.0116827 0.00592232 0
vt 0.436233 0.00592232 0
vt 0.436233 0.28428 0
vt 0.0116827 0.28428 0
vt 0.453423 0.309406 0
vt 0.712275 0.309406 0
vt 0.712275 0.987437 0
vt 0.453423 0.987437 0
vt 0.459598 0.012563 0
vt 0.884149 0.012563 0
vt 0.884149 0.29092 0
vt 0.459598 0.29092 0
vt 0 0.987437 0
vt 0 0.309406 0
vt 0.436233 1 0
vt 0.0116826 1 0
vt 0.723958 0.987437 0
vt 0.723958 0.309406 0
vt 0.436233 0.296843 0
vt 0.0116827 0.296843 0
vt 1 0.999282 0
vt 0.735641 1 0
vt 0.447248 0 0
vt 0.447916 0.28428 0
vt 0.447916 0.297561 0
vt 0.712275 0.296843 0
vt 0.448584 0.296843 0
vt 0.447916 0.012563 0
vt 0.449705 0.00192451 0
vt 0.459598 0 0
vt 0.00178962 0.298767 0
vt 0.446126 0.298767 0
vt 0.447916 0.309406 0
vt 0.894042 0.00192451 0
vt 0.895832 0.012563 0
vt 0.884149 0 0
vt 0.00178962 0.998076 0
vt 0.722168 0.998076 0
vt 0.712275 1 0
vt 0.00178963 0.294918 0
vt 0 0.28428 0
vt 0.722168 0.298767 0
vt 0.725748 0.298767 0
vt 0.735641 0.296843 0
vt 0.446126 0.294918 0
vt 0.725748 0.998076 0
vt 0.446126 0.998076 0
vt 0.447916 0.987437 0
vt 0.895163 0.296843 0
vt 1 0.297561 0
vt 0.000668138 0 0
vt 0.447916 0.999282 0

# 40 vertex normals
vn -0.176903 -0.176903 0.9682
vn 0.176903 -0.176903 0.9682
vn 0.176903 0.176903 0.9682
vn -0.176903 0.176903 0.9682
vn 0.966604 -0.185499 0.176827
vn 0.977251 -0.212084 -0.000867531
vn 0.977171 0.212455 -0.00084537
vn 0.966564 0.185685 0.176846
vn -0.212084 -0.977251 -0.000867524
vn 0.212454 -0.977171 -0.000845361
vn 0.185685 -0.966564 0.176846
vn -0.185499 -0.966604 0.176827
vn -0.977171 -0.212455 -0.00084537
vn -0.966564 -0.185685 0.176846
vn -0.966604 0.185499 0.176827
vn -0.977251 0.212084 -0.000867528
vn -0.185685 0.966564 0.176846
vn 0.185499 0.966604 0.176827
vn 0.212084 0.977251 -0.000867524
vn -0.212454 0.977171 -0.000845361
vn -0.697062 0.167958 0.697062
vn -0.697062 -0.167958 0.697062
vn 0.167958 0.697062 0.697062
vn -0.167958 0.697062 0.697062
vn 0.697062 0.167958 0.697062
vn 0.697062 -0.167958 0.697062
vn 0.167958 -0.697062 0.697062
vn -0.167958 -0.697062 0.697062
vn 0.706837 0.707374 -0.0017869
vn 0.697171 0.697448 0.165889
vn 0.707373 -0.706838 -0.0017869
vn 0.697448 -0.697171 0.165889
vn -0.706837 -0.707374 -0.0017869
vn -0.697171 -0.697448 0.165889
vn -0.707373 0.706838 -0.0017869
vn -0.697448 0.697171 0.165889
vn -0.57735 0.57735 0.57735
vn -0.57735 -0.57735 0.57735
vn 0.57735 -0.57735 0.57735
vn 0.57735 0.57735 0.57735

# Mesh 'Cube_1_Cube_1' with 66 faces
g Cube_1_Cube_1
usemtl DefaultMaterial
f  1/1/1 2/2/2 3/3/3
f  3/3/3 4/4/4 1/1/1
f  5/5/5 6/6/6 7/7/7
f  7/7/7 8/8/8 5/5/5
f  9/9/9 10/10/10 11/11/11
f  11/11/11 12/12/12 9/9/9
f  13/13/13 14/14/14 15/15/15
f  15/15/15 16/16/16 13/13/13
f  17/17/17 18/18/18 19/19/19
f  19/19/19 20/20/20 17/17/17
f  1/1/1 4/4/4 21/21/21
f  21/21/21 22/22/22 1/1/1
f  4/4/4 3/3/3 23/23/23
f  23/23/23 24/24/24 4/4/4
f  5/5/5 8/8/8 25/25/25
f  25/25/25 26/26/26 5/5/5
f  12/12/12 11/11/11 27/27/27
f  27/27/27 28/28/28 12/12/12
f  8/8/8 7/7/7 29/29/29
f  29/29/29 30/30/30 8/8/8
f  11/11/11 10/10/10 31/31/31
f  31/31/31 32/32/32 11/11/11
f  14/14/14 13/13/13 33/33/33
f  33/33/33 34/34/34 14/14/14
f  17/17/17 20/20/20 35/35/35
f  35/35/35 36/36/36 17/17/17
f  37/37/37 24/38/24 17/17/17
f  17/17/17 36/36/36 37/37/37
f  38/39/38 28/28/28 1/1/1
f  1/1/1 22/22/22 38/39/38
f  39/40/39 26/41/26 2/2/2
f  2/2/2 27/27/27 39/40/39
f  40/42/40 30/43/30 18/18/18
f  18/18/18 23/44/23 40/42/40
f  37/45/37 21/21/21 4/4/4
f  4/4/4 24/24/24 37/45/37
f  37/46/37 36/47/36 15/15/15
f  15/15/15 21/25/21 37/46/37
f  38/48/38 34/49/34 12/12/12
f  12/12/12 28/28/28 38/48/38
f  38/50/38 22/26/22 14/14/14
f  14/14/14 34/34/34 38/50/38
f  39/51/39 32/52/32 5/5/5
f  5/5/5 26/26/26 39/51/39
f  39/53/39 27/27/27 11/11/11
f  11/11/11 32/32/32 39/53/39
f  40/54/40 25/25/25 8/8/8
f  8/8/8 30/30/30 40/54/40
f  40/55/40 23/23/23 3/3/3
f  3/3/3 25/56/25 40/55/40
f  22/26/22 21/25/21 15/15/15
f  15/15/15 14/14/14 22/26/22
f  24/38/24 23/44/23 18/18/18
f  18/18/18 17/17/17 24/38/24
f  26/41/26 25/56/25 3/3/3
f  3/3/3 2/2/2 26/41/26
f  28/28/28 27/27/27 2/2/2
f  2/2/2 1/1/1 28/28/28
f  30/43/30 29/57/29 19/19/19
f  19/19/19 18/18/18 30/43/30
f  32/52/32 31/58/31 6/6/6
f  6/6/6 5/5/5 32/52/32
f  34/49/34 33/59/33 9/9/9
f  9/9/9 12/12/12 34/49/34
f  36/47/36 35/60/35 16/16/16
f  16/16/16 15/15/15 36/47/36

