# File produced by Open Asset Import Library (http://www.assimp.sf.net)
# (assimp v3.1.206520482)

mtllib Balie.mtl

# 123 vertex positions
v 1.16756 1.71853 0.572819
v -1.33103 1.71853 0.572819
v -1.33103 0.278727 0.572819
v 1.16756 0.278727 0.572819
v 2.07572 1.71853 -0.572819
v 2.07572 1.71853 0.353092
v 2.07572 0.278727 0.353092
v 2.07572 0.278727 -0.572819
v -1.55805 1.71853 0.353092
v -1.55805 1.71853 -0.353092
v -1.55805 0.278727 -0.353092
v -1.55805 0.278727 0.353092
v 1.89897 0.278727 -1.93101
v 1.28992 0.278727 -1.93101
v 1.28992 1.71853 -1.901
v 1.89688 1.71853 -1.901
v 1.8487 1.71853 0.572819
v 1.8487 0.278727 0.572819
v 1.16756 0.278727 -1.79251
v 1.17409 0.278727 -0.555747
v 1.17409 1.71853 -0.555747
v 1.16756 1.71853 -1.79251
v 2.07572 1.71853 -1.70399
v 2.07572 0.278727 -1.70399
v -1.4953 1.71853 0.495955
v -1.49181 0.278727 0.499332
v -1.33211 1.71853 -0.457866
v -1.33103 0.278727 -0.457866
v 2.05065 1.71853 0.485984
v 2.05533 0.278727 0.506144
v 2.20193 1.96246 -0.565935
v 1.22722 1.96246 -0.534858
v 2.15182 1.96246 0.588762
v 2.21186 1.96246 0.421989
v 2.20193 1.96246 -1.71348
v 1.90893 1.96246 -1.85972
v -1.53889 1.96246 -0.353092
v -1.52252 1.96246 0.353092
v -1.44823 1.96246 0.646568
v 1.21516 1.96246 0.638391
v 1.03186 1.96246 -0.353284
v -1.37876 1.96246 -0.432723
v -1.64691 1.96246 -0.395302
v -1.66146 1.96246 -0.319085
v -1.67053 1.96246 0.442879
v -1.60414 1.96246 0.577745
v 1.96459 1.96246 0.644925
v -1.57598 1.96246 -0.434884
v 1.30637 1.92545 -1.89737
v 1.90007 1.92545 -1.89739
v 1.89985 1.84108 -1.93103
v 1.28992 1.84108 -1.93101
v 2.16825 1.84108 -1.90834
v 2.14979 1.92545 -1.87513
v 2.28981 1.84108 -1.74639
v 2.25179 1.92545 -1.73215
v 1.20121 1.92545 -1.78095
v 1.16756 1.84108 -1.79251
v 1.17409 1.92545 -0.555748
v 1.17409 1.84108 -0.555747
v -1.33861 1.92545 -0.501513
v 1.0288 1.92545 -0.405089
v 1.02881 1.84108 -0.423667
v -1.32961 1.84108 -0.520369
v -1.57598 1.92545 -0.486635
v -1.57873 1.84108 -0.504956
v -1.68222 1.92545 -0.432056
v -1.71231 1.84108 -0.443789
v 2.17375 1.92545 0.623813
v 1.99134 1.92545 0.676108
v 2.01523 1.84108 0.703949
v 2.19561 1.84108 0.649335
v 1.26275 1.84108 0.703949
v 1.24063 1.92545 0.67348
v 2.25262 1.92545 0.444609
v 2.28981 1.84108 0.461208
v -1.49756 1.84108 0.703949
v -1.47407 1.92545 0.676623
v -1.64533 1.84108 0.640085
v -1.62841 1.92545 0.616568
v 2.25157 1.92545 -0.563536
v 2.28981 1.84108 -0.561687
v -1.70609 1.92545 0.443
v -1.72097 1.84108 0.461208
v -1.72226 1.84108 -0.318945
v -1.6969 1.92545 -0.325054
v 2.12886 1.96246 -1.83748
v 1.32534 1.96246 -1.8599
v 1.24261 1.96246 -1.76478
v 1.28992 1.7663 -1.93101
v 1.16756 1.7663 -1.79251
v 1.17409 1.7663 -0.555747
v -1.32887 1.7663 -0.501781
v 1.02884 1.7663 -0.405059
v 1.03182 1.71853 -0.402242
v 1.89936 1.7663 -1.93102
v -1.4846 1.71853 0.6475
v 1.22605 1.71853 0.653388
v 1.26275 1.7663 0.703949
v -1.49756 1.7663 0.694446
v 2.01523 1.7663 0.695518
v 2.00483 1.71853 0.647495
v 2.19467 1.7663 0.64024
v 2.16222 1.71853 0.5905
v 2.28981 1.7663 0.461208
v 2.2335 1.71853 0.447459
v 2.28981 1.7663 -0.561687
v 2.23351 1.71853 -0.564614
v 2.28981 1.7663 -1.74639
v 2.23347 1.71853 -1.72758
v 2.16825 1.7663 -1.90834
v 2.14282 1.71853 -1.85217
v -1.60342 1.71853 0.592757
v -1.63458 1.7663 0.636419
v -1.67053 1.71853 0.446747
v -1.72097 1.7663 0.461208
v -1.57873 1.7663 -0.486368
v -1.56231 1.71853 -0.452223
v -1.71231 1.7663 -0.439474
v -1.66609 1.71853 -0.429264
v -1.72097 1.7663 -0.318945
v -1.67053 1.71853 -0.314043
v 1.03141 0.278727 -0.402631

# 168 UV coordinates
vt 0.404509 0.281754 0
vt 0.234217 0.282561 0
vt 0.233382 0.0276337 0
vt 0.403674 0.0268269 0
vt 0.661762 0.281938 0
vt 0.495628 0.281518 0
vt 0.496073 0.0265898 0
vt 0.662208 0.0270096 0
vt 0.190465 0.282771 0
vt 0.0637567 0.283384 0
vt 0.0629037 0.0284569 0
vt 0.189613 0.0278438 0
vt 0.907649 0.0276209 0
vt 0.949145 0.0289569 0
vt 0.94347 0.283877 0
vt 0.902117 0.282546 0
vt 0.450933 0.281534 0
vt 0.450098 0.026607 0
vt 0.347364 0.324047 0
vt 0.630095 0.32125 0
vt 0.632766 0.591323 0
vt 0.350036 0.59412 0
vt 0.864727 0.282451 0
vt 0.865172 0.0275225 0
vt 0.216453 0.282645 0
vt 0.216237 0.0277149 0
vt 0.0394557 0.283502 0
vt 0.0385562 0.0285748 0
vt 0.471722 0.281458 0
vt 0.468576 0.0265195 0
vt 0.975325 0.0305591 0
vt 0.96462 0.285163 0
vt 0.325675 0.564833 0
vt 0.223205 0.505137 0
vt 0.325986 0.33457 0
vt 0.331416 0.367897 0
vt 0.320204 0.793606 0
vt 0.289123 0.822372 0
vt 0.0374682 0.482149 0
vt 0.0392993 0.368721 0
vt 0.0472127 0.321696 0
vt 0.225194 0.325844 0
vt 0.20645 0.505578 0
vt 0.0483403 0.509735 0
vt 0.0211441 0.50183 0
vt 0.0204227 0.478609 0
vt 0.0230352 0.357532 0
vt 0.0285482 0.330935 0
vt 0.306838 0.323127 0
vt 0.0263556 0.509456 0
vt 0.12922 0.535176 0
vt 0.124113 0.570887 0
vt 0.112504 0.568111 0
vt 0.117162 0.532283 0
vt 0.111055 0.582736 0
vt 0.121212 0.586018 0
vt 0.110334 0.60763 0
vt 0.121008 0.60943 0
vt 0.156745 0.570458 0
vt 0.159772 0.548088 0
vt 0.173175 0.544624 0
vt 0.169252 0.571014 0
vt 0.153356 0.791467 0
vt 0.166924 0.788666 0
vt 0.159347 0.960659 0
vt 0.153936 0.807847 0
vt 0.167372 0.804669 0
vt 0.171587 0.955088 0
vt 0.16409 0.975292 0
vt 0.176591 0.971297 0
vt 0.0654266 0.966799 0
vt 0.0670425 0.978891 0
vt 0.055382 0.983707 0
vt 0.0542361 0.968977 0
vt 0.0689478 0.536368 0
vt 0.0663114 0.550183 0
vt 0.054644 0.549134 0
vt 0.055681 0.534921 0
vt 0.0523413 0.595876 0
vt 0.0647448 0.597851 0
vt 0.120708 0.95564 0
vt 0.121567 0.984619 0
vt 0.11055 0.988546 0
vt 0.110149 0.958168 0
vt 0.0451622 0.768175 0
vt 0.0569338 0.768693 0
vt 0.044854 0.780354 0
vt 0.0565604 0.782151 0
vt 0.120926 0.795232 0
vt 0.110285 0.795525 0
vt 0.0570129 0.811217 0
vt 0.0456435 0.809115 0
vt 0.0525679 0.938474 0
vt 0.06372 0.938957 0
vt 0.129893 0.574482 0
vt 0.127159 0.589952 0
vt 0.136565 0.537691 0
vt 0.150336 0.57126 0
vt 0.152465 0.553157 0
vt 0.145812 0.794954 0
vt 0.153222 0.980775 0
vt 0.146522 0.81276 0
vt 0.0709107 0.964315 0
vt 0.072202 0.973695 0
vt 0.126886 0.952167 0
vt 0.126876 0.979186 0
vt 0.073415 0.551335 0
vt 0.0724072 0.599852 0
vt 0.0638616 0.768602 0
vt 0.126955 0.79485 0
vt 0.127085 0.612039 0
vt 0.0626188 0.785159 0
vt 0.0626865 0.81419 0
vt 0.0691669 0.939868 0
vt 0.184046 0.546484 0
vt 0.190885 0.552975 0
vt 0.187332 0.574559 0
vt 0.179978 0.573086 0
vt 0.18555 0.787757 0
vt 0.178088 0.787426 0
vt 0.181874 0.951728 0
vt 0.178447 0.803004 0
vt 0.185701 0.802295 0
vt 0.189105 0.949469 0
vt 0.0767638 0.536103 0
vt 0.156866 0.977524 0
vt 0.107372 0.531165 0
vt 0.102921 0.567174 0
vt 0.0948909 0.567478 0
vt 0.0993749 0.530363 0
vt 0.0249742 0.769664 0
vt 0.0319085 0.597038 0
vt 0.0425246 0.595313 0
vt 0.035634 0.767922 0
vt 0.045478 0.548703 0
vt 0.0348806 0.546433 0
vt 0.0444179 0.534312 0
vt 0.0337281 0.532101 0
vt 0.100888 0.958191 0
vt 0.101104 0.987175 0
vt 0.0937726 0.979781 0
vt 0.093757 0.956225 0
vt 0.100913 0.795518 0
vt 0.0937997 0.795047 0
vt 0.100929 0.607357 0
vt 0.0937943 0.60977 0
vt 0.102486 0.582434 0
vt 0.0946805 0.587591 0
vt 0.0270331 0.785375 0
vt 0.0348781 0.780224 0
vt 0.0285079 0.811821 0
vt 0.0358927 0.809424 0
vt 0.186861 0.967962 0
vt 0.189208 0.949651 0
vt 0.193592 0.964798 0
vt 0.0445613 0.968938 0
vt 0.0452589 0.984988 0
vt 0.0383633 0.984727 0
vt 0.0372469 0.968497 0
vt 0.0427185 0.939069 0
vt 0.0353006 0.938783 0
vt 0.225908 0.816836 0
vt 0.22058 0.798366 0
vt 0.312036 0.818229 0
vt 0.667226 0.320882 0
vt 0.66997 0.590955 0
vt 0.872739 0.318777 0
vt 0.875613 0.588824 0

# 120 vertex normals
vn 0 0 1
vn -0.0282381 3.73777e-05 0.999601
vn 1 0 0
vn 0.999774 0.000366542 0.0212602
vn -0.997139 -0.00011663 0.075593
vn -0.963146 -4.66055e-05 -0.268979
vn 0.257622 0.0180743 -0.966077
vn -0.164619 0.0188578 -0.986177
vn -0.170279 -0.000609437 -0.985396
vn 0.257039 0.00224875 -0.966398
vn 0.0863625 0.00174975 0.996262
vn -0.996394 0.00093423 -0.0848468
vn -0.995251 2.95032e-05 -0.0973378
vn -0.995248 -0.000178218 -0.0973697
vn -0.996394 -1.11704e-07 -0.0848469
vn 0.991352 0.00148148 -0.131222
vn -0.695982 -1.18919e-06 0.718059
vn -0.694969 1.18732e-06 0.719039
vn -0.0190647 0.000113125 -0.999818
vn -0.0190367 0.000113143 -0.999819
vn 0.699068 0.00614373 0.715028
vn 0.692074 0.00617975 0.7218
vn 0.0528598 0.998602 -0.000125472
vn -0.0266431 0.999629 -0.00562595
vn 0.0126659 0.999865 0.0104713
vn 0.0458554 0.998947 0.00120068
vn 0.0439928 0.99903 -0.00183864
vn 0.00113568 0.999338 -0.0363738
vn 0 1 -2.43405e-08
vn 0 1 -2.17003e-08
vn -0.000907255 0.999184 0.0403812
vn 2.72052e-05 0.999166 0.0408314
vn 0.000144776 0.99967 -0.0256699
vn 0.000708465 0.999726 -0.0233898
vn -0.37921 0.906577 -0.185253
vn -0.192989 0.981189 -0.00483469
vn -0.361933 0.931848 0.02577
vn -0.214515 0.962394 0.166675
vn 0.00230365 0.999066 0.0431471
vn -0.0892953 0.908214 -0.408869
vn -0.151752 0.503887 -0.850335
vn 0.0225506 0.501344 -0.864954
vn 0.024842 0.204173 -0.97862
vn -0.161265 0.20611 -0.965149
vn 0.389537 0.216688 -0.895158
vn 0.3717 0.526256 -0.764784
vn 0.969871 0.225142 -0.0930657
vn 0.831786 0.551242 -0.0653028
vn -0.899844 0.42858 -0.0812339
vn -0.988603 0.117915 -0.0935924
vn -0.854378 0.511657 -0.0908025
vn -0.989889 0.0939187 -0.106301
vn 0.0259644 0.557041 -0.830079
vn -0.0220254 0.57452 -0.818194
vn -0.0256041 0.00177994 -0.999671
vn 0.0315355 0.00504574 -0.99949
vn -0.161143 0.490568 -0.856374
vn -0.175252 0.0150579 -0.984408
vn -0.679549 0.493399 -0.542928
vn -0.763527 0.115413 -0.635379
vn 0.55954 0.530057 0.637146
vn 0.0492403 0.448588 0.892381
vn 0.0573436 0.146862 0.987493
vn 0.610081 0.182145 0.771119
vn -6.44338e-05 0.146357 0.989232
vn 6.1186e-05 0.442531 0.896753
vn 0.850187 0.523389 0.0569718
vn 0.97276 0.216842 0.0819609
vn -0.0202705 0.142019 0.989656
vn -0.0188012 0.436785 0.899369
vn -0.692906 0.135761 0.708131
vn -0.626065 0.478928 0.615362
vn 0.819115 0.573629 -0.000748596
vn 0.972951 0.231012 -9.96187e-05
vn -0.911592 0.407461 0.054538
vn -0.989292 0.11357 0.0916647
vn -0.991648 0.128267 -0.013466
vn -0.90919 0.415861 -0.0208244
vn 0.20839 0.918027 -0.337343
vn -0.0103548 0.998599 -0.0518941
vn -0.0707156 0.997487 -0.00445494
vn -0.154054 -0.214003 -0.964609
vn -0.996383 -0.0109038 -0.0842788
vn -0.994988 -0.0104703 -0.0994419
vn 0.0274287 -0.329714 -0.943682
vn -0.0169522 -0.314858 -0.948988
vn -0.0387219 -0.0144557 -0.999146
vn 0.0289707 -0.439274 -0.897886
vn 0.0298549 -0.262464 -0.96448
vn -0.019462 -0.716486 0.69733
vn -0.000464115 -0.715044 0.69908
vn 6.20568e-05 -0.384549 0.923104
vn -0.0195762 -0.388752 0.921134
vn 0.056502 -0.397693 0.915777
vn 0.0551381 -0.72838 0.682951
vn 0.572834 -0.406455 0.711797
vn 0.480333 -0.768689 0.422371
vn 0.919548 -0.385383 0.0768794
vn 0.64347 -0.764696 0.0344504
vn 0.909655 -0.415365 -2.74132e-06
vn 0.646871 -0.762599 -5.52968e-06
vn 0.923342 -0.372816 -0.0919156
vn 0.640257 -0.767333 -0.035648
vn 0.778416 -0.233661 -0.582642
vn 0.526033 -0.755993 -0.389568
vn 0.100544 -0.682496 -0.723941
vn 0.100544 -0.682496 -0.723941
vn 0.0986021 -0.340154 -0.935186
vn -0.543614 -0.737655 0.400437
vn -0.637409 -0.396351 0.660769
vn -0.683156 -0.729078 0.0417522
vn -0.928495 -0.360925 0.087351
vn -0.151176 -0.374441 -0.914844
vn -0.033845 -0.635145 -0.771651
vn -0.103977 -0.604283 -0.789956
vn -0.727865 -0.363724 -0.581306
vn -0.545789 -0.708339 -0.447626
vn -0.929234 -0.369396 -0.00846088
vn -0.689069 -0.724682 -0.00450081
vn -0.0390386 0.000148911 -0.999238

# Mesh 'Balie_LP1_Balie_LP1' with 205 faces
g Balie_LP1_Balie_LP1
usemtl lambert1
f 1/1/1 2/2/2 3/3/2
f 3/3/2 4/4/1 1/1/1
f 5/5/3 6/6/4 7/7/4
f 7/7/4 8/8/3 5/5/3
f 9/9/5 10/10/6 11/11/6
f 11/11/6 12/12/5 9/9/5
f 13/13/7 14/14/8 15/15/9
f 15/15/9 16/16/10 13/13/7
f 17/17/11 1/1/1 4/4/1
f 4/4/1 18/18/11 17/17/11
f 19/19/12 20/20/13 21/21/14
f 21/21/14 22/22/15 19/19/12
f 23/23/16 5/5/3 8/8/3
f 8/8/3 24/24/16 23/23/16
f 2/2/2 25/25/17 26/26/18
f 26/26/18 3/3/2 2/2/2
f 11/11/6 10/10/6 27/27/19
f 27/27/19 28/28/20 11/11/6
f 6/6/4 29/29/21 30/30/22
f 30/30/22 7/7/4 6/6/4
f 19/31/12 22/32/15 15/15/9
f 15/15/9 14/14/8 19/31/12
f 31/33/23 32/34/24 33/35/25
f 33/35/25 34/36/26 31/33/23
f 31/33/23 35/37/27 36/38/28
f 36/38/28 32/34/24 31/33/23
f 37/39/29 38/40/30 39/41/31
f 37/39/29 39/41/31 40/42/32
f 37/39/29 40/42/32 41/43/33
f 41/43/33 42/44/34 37/39/29
f 37/39/29 43/45/35 44/46/36
f 45/47/37 38/40/30 37/39/29
f 37/39/29 44/46/36 45/47/37
f 46/48/38 39/41/31 38/40/30
f 9/9/5 12/12/5 26/26/18
f 26/26/18 25/25/17 9/9/5
f 33/35/25 32/34/24 40/42/32
f 40/42/32 47/49/39 33/35/25
f 17/17/11 18/18/11 30/30/22
f 30/30/22 29/29/21 17/17/11
f 37/39/29 42/44/34 48/50/40
f 37/39/29 48/50/40 43/45/35
f 49/51/41 50/52/42 51/53/43
f 51/53/43 52/54/44 49/51/41
f 53/55/45 51/53/43 50/52/42
f 50/52/42 54/56/46 53/55/45
f 55/57/47 53/55/45 54/56/46
f 54/56/46 56/58/48 55/57/47
f 57/59/49 49/60/41 52/61/44
f 52/61/44 58/62/50 57/59/49
f 59/63/51 57/59/49 58/62/50
f 58/62/50 60/64/52 59/63/51
f 61/65/53 62/66/54 63/67/55
f 63/67/55 64/68/56 61/65/53
f 65/69/57 61/65/53 64/68/56
f 64/68/56 66/70/58 65/69/57
f 67/71/59 65/72/57 66/73/58
f 66/73/58 68/74/60 67/71/59
f 69/75/61 70/76/62 71/77/63
f 71/77/63 72/78/64 69/75/61
f 73/79/65 71/77/63 70/76/62
f 70/76/62 74/80/66 73/79/65
f 75/81/67 69/82/61 72/83/64
f 72/83/64 76/84/68 75/81/67
f 77/85/69 73/79/65 74/80/66
f 74/80/66 78/86/70 77/85/69
f 79/87/71 77/85/69 78/86/70
f 78/86/70 80/88/72 79/87/71
f 81/89/73 75/81/67 76/84/68
f 76/84/68 82/90/74 81/89/73
f 56/58/48 81/89/73 82/90/74
f 82/90/74 55/57/47 56/58/48
f 80/88/72 83/91/75 84/92/76
f 84/92/76 79/87/71 80/88/72
f 85/93/77 84/92/76 83/91/75
f 83/91/75 86/94/78 85/93/77
f 68/74/60 85/93/77 86/94/78
f 86/94/78 67/71/59 68/74/60
f 54/56/46 50/52/42 36/95/28
f 36/95/28 87/96/79 54/56/46
f 88/97/80 36/95/28 50/52/42
f 50/52/42 49/51/41 88/97/80
f 89/98/81 88/99/80 49/60/41
f 49/60/41 57/59/49 89/98/81
f 32/100/24 89/98/81 57/59/49
f 57/59/49 59/63/51 32/100/24
f 42/101/34 41/102/33 62/66/54
f 62/66/54 61/65/53 42/101/34
f 43/103/35 48/104/40 65/72/57
f 65/72/57 67/71/59 43/103/35
f 34/105/26 33/106/25 69/82/61
f 69/82/61 75/81/67 34/105/26
f 74/80/66 70/76/62 47/107/39
f 47/107/39 40/108/32 74/80/66
f 78/86/70 74/80/66 40/108/32
f 40/108/32 39/109/31 78/86/70
f 31/110/23 34/105/26 75/81/67
f 75/81/67 81/89/73 31/110/23
f 87/96/79 35/111/27 56/58/48
f 56/58/48 54/56/46 87/96/79
f 80/88/72 78/86/70 39/109/31
f 39/109/31 46/112/38 80/88/72
f 86/94/78 83/91/75 45/113/37
f 45/113/37 44/114/36 86/94/78
f 44/114/36 43/103/35 67/71/59
f 67/71/59 86/94/78 44/114/36
f 90/115/82 15/116/9 22/117/15
f 22/117/15 91/118/83 90/115/82
f 91/118/83 22/117/15 21/119/14
f 21/119/14 92/120/84 91/118/83
f 93/121/85 94/122/86 95/123/87
f 95/123/87 27/124/88 93/121/85
f 83/91/75 80/88/72 46/112/38
f 46/112/38 45/113/37 83/91/75
f 33/125/25 47/107/39 70/76/62
f 70/76/62 69/75/61 33/125/25
f 48/126/40 42/101/34 61/65/53
f 61/65/53 65/69/57 48/126/40
f 35/111/27 31/110/23 81/89/73
f 81/89/73 56/58/48 35/111/27
f 90/127/82 96/128/89 16/129/10
f 16/129/10 15/130/9 90/127/82
f 24/24/16 13/13/7 16/16/10
f 16/16/10 23/23/16 24/24/16
f 97/131/90 98/132/91 99/133/92
f 99/133/92 100/134/93 97/131/90
f 101/135/94 99/133/92 98/132/91
f 98/132/91 102/136/95 101/135/94
f 103/137/96 101/135/94 102/136/95
f 102/136/95 104/138/97 103/137/96
f 105/139/98 103/140/96 104/141/97
f 104/141/97 106/142/99 105/139/98
f 107/143/100 105/139/98 106/142/99
f 106/142/99 108/144/101 107/143/100
f 109/145/102 107/143/100 108/144/101
f 108/144/101 110/146/103 109/145/102
f 111/147/104 109/145/102 110/146/103
f 110/146/103 112/148/105 111/147/104
f 112/148/106 16/129/107 96/128/89
f 96/128/89 111/147/108 112/148/106
f 113/149/109 97/131/90 100/134/93
f 100/134/93 114/150/110 113/149/109
f 115/151/111 113/149/109 114/150/110
f 114/150/110 116/152/112 115/151/111
f 117/153/113 93/121/85 27/154/114
f 27/154/114 118/155/115 117/153/113
f 119/156/116 117/157/113 118/158/115
f 118/158/115 120/159/117 119/156/116
f 121/160/118 119/156/116 120/159/117
f 120/159/117 122/161/119 121/160/118
f 116/152/112 121/160/118 122/161/119
f 122/161/119 115/151/111 116/152/112
f 73/79/65 99/133/92 101/135/94
f 101/135/94 71/77/63 73/79/65
f 76/84/68 72/83/64 103/140/96
f 103/140/96 105/139/98 76/84/68
f 76/84/68 105/139/98 107/143/100
f 107/143/100 82/90/74 76/84/68
f 53/55/45 55/57/47 109/145/102
f 109/145/102 111/147/104 53/55/45
f 77/85/69 79/87/71 114/150/110
f 114/150/110 100/134/93 77/85/69
f 77/85/69 100/134/93 99/133/92
f 99/133/92 73/79/65 77/85/69
f 68/74/60 119/156/116 121/160/118
f 121/160/118 85/93/77 68/74/60
f 85/93/77 121/160/118 116/152/112
f 116/152/112 84/92/76 85/93/77
f 53/55/45 111/147/108 96/128/89
f 96/128/89 51/53/43 53/55/45
f 68/74/60 66/73/58 117/157/113
f 117/157/113 119/156/116 68/74/60
f 84/92/76 116/152/112 114/150/110
f 114/150/110 79/87/71 84/92/76
f 71/77/63 101/135/94 103/137/96
f 103/137/96 72/78/64 71/77/63
f 66/70/58 64/68/56 93/121/85
f 93/121/85 117/153/113 66/70/58
f 82/90/74 107/143/100 109/145/102
f 109/145/102 55/57/47 82/90/74
f 64/68/56 63/67/55 94/122/86
f 94/122/86 93/121/85 64/68/56
f 58/62/50 91/118/83 92/120/84
f 92/120/84 60/64/52 58/62/50
f 52/61/44 90/115/82 91/118/83
f 91/118/83 58/62/50 52/61/44
f 51/53/43 96/128/89 90/127/82
f 90/127/82 52/54/44 51/53/43
f 88/162/80 89/163/81 32/34/24
f 32/34/24 36/38/28 88/162/80
f 36/38/28 35/37/27 87/164/79
f 41/43/33 40/42/32 32/34/24
f 41/102/33 32/100/24 59/63/51
f 59/63/51 62/66/54 41/102/33
f 62/66/54 59/63/51 60/64/52
f 60/64/52 63/67/55 62/66/54
f 60/64/52 92/120/84 94/122/86
f 94/122/86 63/67/55 60/64/52
f 92/120/84 21/119/14 95/123/87
f 95/123/87 94/122/86 92/120/84
f 20/20/13 123/165/120 95/166/87
f 95/166/87 21/21/14 20/20/13
f 123/165/120 28/167/20 27/168/19
f 27/168/19 95/166/87 123/165/120
f 46/48/38 38/40/30 45/47/37

