# File produced by Open Asset Import Library (http://www.assimp.sf.net)
# (assimp v3.1.31193554)

mtllib frame.mtl

# vertex positions
v 54.000004 -74.000000 2.128735
v 54.000004 74.000000 2.128735
v -54.000004 74.000000 2.128735
v -54.000004 -74.000000 2.128735
v 62.700001 -82.699997 -2.175718
v 62.700001 82.699997 -2.175718
v 62.700001 82.699997 6.500000
v 62.700001 -82.699997 6.500000
v -62.700001 -82.699997 6.500000
v -62.700001 -82.699997 -2.175718
v -62.700001 82.699997 6.500000
v -62.700001 82.699997 -2.175718
v 54.000004 74.000000 6.500000
v 54.000004 -74.000000 6.500000
v -54.000004 -74.000000 6.500000
v -54.000004 74.000000 6.500000

# UV coordinates
vt 0.990173 0.190235
vt 0.990173 1.000000
vt 0.399264 1.000000
vt 0.399264 0.190235
vt 0.639339 0.068807
vt 0.001944 0.069315
vt 0.001918 0.035882
vt 0.639312 0.035374
vt 0.486677 0.140601
vt 0.486677 0.174034
vt 0.003428 0.174034
vt 0.003428 0.140601
vt 0.001891 0.002448
vt 0.639285 0.001941
vt 0.486677 0.107168
vt 0.003430 0.140601
vt 0.003430 0.107168
vt 0.072963 0.997714
vt 0.039436 0.964188
vt 0.039436 0.393847
vt 0.072963 0.360320
vt 0.577060 0.103676
vt 0.577060 0.086830
vt 0.993254 0.086830
vt 0.993254 0.103676
vt 0.993677 0.147034
vt 0.960150 0.180561
vt 0.543955 0.180561
vt 0.510428 0.147034
vt 0.572285 0.068861
vt 0.572298 0.085706
vt 0.001958 0.086160
vt 0.993254 0.069985
vt 0.577060 0.069985
vt 0.000000 0.362606
vt 0.033527 0.396132
vt 0.033527 0.966473
vt 0.000000 1.000000
vt 0.001971 0.103006
vt 0.572311 0.102551
vt 0.508667 0.143333
vt 0.542194 0.109807
vt 0.958388 0.109807
vt 0.991915 0.143333

# vertex normals
vn 0.000000 0.000000 1.000000
vn 1.000000 0.000000 0.000000
vn 0.000000 -1.000000 0.000000
vn -1.000000 0.000000 0.000000
vn 0.000000 1.000000 0.000000

# Mesh
g Cube
usemtl DefaultMaterial
f 4/4/1 1/1/1 2/2/1
f 2/2/1 3/3/1 4/4/1
f 8/8/2 5/5/2 6/6/2
f 6/6/2 7/7/2 8/8/2
f 10/12/3 5/9/3 8/10/3
f 8/10/3 9/11/3 10/12/3
f 10/14/4 9/8/4 11/7/4
f 11/7/4 12/13/4 10/14/4
f 11/17/5 7/15/5 6/9/5
f 6/9/5 12/16/5 11/17/5
f 8/21/1 7/18/1 13/19/1
f 13/19/1 14/20/1 8/21/1
f 1/25/5 4/22/5 15/23/5
f 15/23/5 14/24/5 1/25/5
f 9/29/1 8/26/1 14/27/1
f 14/27/1 15/28/1 9/29/1
f 2/6/4 1/30/4 14/31/4
f 14/31/4 13/32/4 2/6/4
f 3/34/3 2/33/3 13/24/3
f 13/24/3 16/23/3 3/34/3
f 11/38/1 9/35/1 15/36/1
f 15/36/1 16/37/1 11/38/1
f 4/40/2 3/39/2 16/32/2
f 16/32/2 15/31/2 4/40/2
f 7/44/1 11/41/1 16/42/1
f 16/42/1 13/43/1 7/44/1
