# File produced by Open Asset Import Library (http://www.assimp.sf.net)
# (assimp v3.1.206520482)

mtllib MOk_OBJ_001.mtl

# 144 vertex positions
v -1.33441 0 2.31127
v -2.66883 0 2.38419e-07
v -1.33441 0 -2.31127
v -1.19209e-07 0 -2.31127
v 1.33441 0 -2.31127
v 2.66883 0 0
v 1.33441 0 2.31127
v 1.47638 0.24589 -2.55716
v 1.47638 1.59686 -2.55716
v 2.95276 1.59686 0
v 2.95276 0.24589 0
v 0.600332 0.616395 -2.55716
v 0.732981 1.17443 -2.55716
v -2.95276 0.24589 2.38419e-07
v -2.95276 1.59686 2.38419e-07
v -1.47638 1.59686 -2.55716
v -1.47638 0.24589 -2.55716
v -1.47638 0.24589 2.55716
v -1.47638 1.59686 2.55716
v 1.47638 0.24589 2.55716
v 1.47638 1.59686 2.55716
v 2.43029 4.24647 0
v 1.21515 4.24647 -2.1047
v -1.19209e-07 4.24646 -2.1047
v -1.21515 4.24647 -2.1047
v -2.43029 4.24647 2.38419e-07
v -1.21515 4.24647 2.1047
v 1.21515 4.24647 2.1047
v 2.88177 0.0614724 0
v 1.44089 0.0614724 -2.49569
v -1.44089 0.0614724 -2.49569
v -1.19209e-07 0.0614724 -2.49569
v -2.88177 0.0614724 2.38419e-07
v -1.44089 0.0614724 2.49569
v 1.44089 0.0614724 2.49569
v -1.19209e-07 0.277117 -2.55716
v 2.43029 5.64976 0
v 1.21515 5.64976 -2.1047
v -1.19209e-07 5.64976 -2.1047
v -1.21515 5.64976 -2.1047
v -2.43029 5.64976 2.38419e-07
v -1.21515 5.64976 2.1047
v 1.21515 5.64976 2.1047
v 1.44441 5.84157 -2.50179
v 1.34576 5.90551 -2.33093
v 2.69152 5.90551 0
v 2.88882 5.84157 0
v -1.19209e-07 5.84157 -2.50179
v -1.19209e-07 5.90551 -2.33093
v -2.88882 5.84157 2.38419e-07
v -2.69152 5.90551 2.38419e-07
v -1.34576 5.90551 -2.33093
v -1.44441 5.84157 -2.50179
v -1.44441 5.84157 2.50179
v -1.34576 5.90551 2.33093
v 1.44441 5.84157 2.50179
v 1.34576 5.90551 2.33093
v 1.24712 5.84157 -2.16007
v 2.49423 5.84157 0
v -1.19209e-07 5.84157 -2.16007
v -2.49423 5.84157 2.38419e-07
v -1.24712 5.84157 -2.16007
v -1.24712 5.84157 2.16007
v 1.24712 5.84157 2.16007
v 1.47638 5.64976 -2.55716
v 2.95276 5.64976 0
v -1.19209e-07 5.64673 -2.55716
v -2.95276 5.64976 2.38419e-07
v -1.47638 5.64976 -2.55716
v -1.47638 5.64976 2.55716
v 1.47638 5.64976 2.55716
v 1.47638 4.2988 -2.55716
v 2.95276 4.2988 0
v 2.95276 2.94783 0
v 1.47638 2.94783 -2.55716
v -1.47638 2.94783 -2.55716
v -0.524501 4.33736 -2.55716
v -1.19209e-07 4.1221 -2.55716
v -1.19209e-07 2.94783 -2.55716
v -2.95276 4.2988 2.38419e-07
v -1.47638 4.2988 -2.55716
v -2.95276 2.94783 2.38419e-07
v -1.47638 4.2988 2.55716
v -1.47638 2.94783 2.55716
v 1.47638 4.2988 2.55716
v 1.47638 2.94783 2.55716
v -0.603901 5.32665 -2.55716
v -0.728091 4.76945 -2.55716
v -0.600333 0.616395 -2.55716
v 0.5245 4.33736 -2.55716
v 0.6039 5.32665 -2.55716
v 0.72809 4.76945 -2.55716
v 0.527509 1.6126 -2.55716
v -0.52751 1.6126 -2.55716
v -0.732981 1.17443 -2.55716
v -1.19209e-07 1.82995 -2.55716
v 0.404073 5.25241 -2.77025
v 0.547713 4.8829 -2.77025
v 0.547713 4.8829 -3.95367
v 0.404073 5.25067 -4.33522
v 0.404073 4.51346 -2.77025
v 0.404073 4.5146 -3.57213
v -1.19209e-07 4.33562 -2.77025
v -1.19209e-07 4.33688 -3.38849
v -0.404073 4.51346 -2.77025
v -0.404073 4.5146 -3.57213
v -0.547713 4.8829 -2.77025
v -0.547713 4.8829 -3.95367
v -0.404073 5.25241 -2.77025
v -0.404073 5.25067 -4.33522
v -1.19209e-07 5.43029 -2.77025
v -1.19209e-07 5.42758 -4.51887
v 0.404073 0.699902 -2.77025
v -1.19209e-07 0.522133 -2.77025
v -1.19209e-07 0.527856 -4.51887
v 0.404073 0.703599 -4.33523
v -0.404073 0.699902 -2.77025
v -0.404073 0.703599 -4.33523
v -0.547713 1.06915 -2.77025
v -0.547713 1.06915 -3.95367
v -0.404073 1.43826 -2.77025
v -0.404073 1.43584 -3.57213
v -1.19209e-07 1.61594 -2.77025
v -1.19209e-07 1.61328 -3.38851
v 0.404073 1.43826 -2.77025
v 0.404073 1.43584 -3.57213
v 0.547713 1.06915 -2.77025
v 0.547713 1.06915 -3.95367
v -0.547713 1.47555 -4.36007
v -0.547713 4.4765 -4.36007
v -0.404073 4.84363 -4.74162
v -0.404073 1.11135 -4.74162
v -1.19209e-07 5.02033 -4.92527
v -1.19209e-07 0.936064 -4.92527
v 0.404073 4.84363 -4.74162
v 0.404073 1.11135 -4.74162
v 0.547713 4.4765 -4.36007
v 0.547713 1.47555 -4.36007
v 0.404073 4.10937 -3.97852
v 0.404073 1.83974 -3.97852
v -1.19209e-07 3.93267 -3.79488
v -1.19209e-07 2.01503 -3.79488
v -0.404073 4.10937 -3.97852
v -0.404073 1.83974 -3.97852

# 239 UV coordinates
vt 0.929007 0.000513494 0
vt 0.9995 0.122637 0
vt 0.928984 0.244747 0
vt 0.858479 0.244746 0
vt 0.787974 0.244733 0
vt 0.717484 0.12261 0
vt 0.787999 0.000500053 0
vt 0.780464 0.265263 0
vt 0.78047 0.336636 0
vt 0.624476 0.336642 0
vt 0.624473 0.265271 0
vt 0.826758 0.284825 0
vt 0.819748 0.314315 0
vt 0.1565 0.265271 0
vt 0.156499 0.336643 0
vt 0.000505179 0.336639 0
vt 0.000506938 0.265268 0
vt 0.312492 0.265275 0
vt 0.312492 0.336645 0
vt 0.468483 0.265275 0
vt 0.468484 0.336646 0
vt 0.730118 0.776426 0
vt 0.794293 0.665241 0
vt 0.858481 0.665234 0
vt 0.922669 0.665227 0
vt 0.98687 0.776396 0
vt 0.922696 0.887581 0
vt 0.794319 0.887596 0
vt 0.626347 0.255002 0
vt 0.631972 0.244732 0
vt 0.772963 0.244724 0
vt 0.778589 0.254994 0
vt 0.934611 0.255012 0
vt 0.858478 0.255022 0
vt 0.00238222 0.254998 0
vt 0.0080075 0.244728 0
vt 0.149001 0.244731 0
vt 0.154626 0.255001 0
vt 0.158376 0.255002 0
vt 0.164001 0.244732 0
vt 0.304993 0.244735 0
vt 0.310618 0.255005 0
vt 0.314367 0.255005 0
vt 0.319992 0.244735 0
vt 0.460983 0.244736 0
vt 0.466608 0.255006 0
vt 0.470358 0.255006 0
vt 0.475982 0.244736 0
vt 0.616973 0.244733 0
vt 0.622598 0.255002 0
vt 0.936489 0.265278 0
vt 0.858477 0.266875 0
vt 0.638287 0.591127 0
vt 0.766679 0.591121 0
vt 0.766683 0.665257 0
vt 0.63829 0.665263 0
vt 0.858473 0.591106 0
vt 0.794284 0.591114 0
vt 0.0142998 0.591123 0
vt 0.142692 0.591128 0
vt 0.142689 0.665263 0
vt 0.0142971 0.665258 0
vt 0.170294 0.591128 0
vt 0.298688 0.591132 0
vt 0.298686 0.665268 0
vt 0.170292 0.665265 0
vt 0.32629 0.591131 0
vt 0.454685 0.591132 0
vt 0.454684 0.665269 0
vt 0.32629 0.665268 0
vt 0.482289 0.591132 0
vt 0.610683 0.591129 0
vt 0.610685 0.665267 0
vt 0.48229 0.665269 0
vt 0.778789 0.561297 0
vt 0.773578 0.570935 0
vt 0.631385 0.570942 0
vt 0.626173 0.561305 0
vt 0.787381 0.570932 0
vt 0.782168 0.561296 0
vt 0.858471 0.561285 0
vt 0.858472 0.570922 0
vt 0.154805 0.561305 0
vt 0.149593 0.570942 0
vt 0.00739995 0.570938 0
vt 0.00218871 0.5613 0
vt 0.3108 0.561308 0
vt 0.305589 0.570946 0
vt 0.163394 0.570943 0
vt 0.158183 0.561305 0
vt 0.466797 0.561309 0
vt 0.461585 0.570947 0
vt 0.31939 0.570946 0
vt 0.314178 0.561308 0
vt 0.622795 0.561305 0
vt 0.617584 0.570943 0
vt 0.475387 0.570947 0
vt 0.470175 0.561309 0
vt 0.768367 0.580573 0
vt 0.636597 0.58058 0
vt 0.792593 0.580568 0
vt 0.858472 0.58056 0
vt 0.144381 0.58058 0
vt 0.0126112 0.580576 0
vt 0.300377 0.580584 0
vt 0.168605 0.580581 0
vt 0.456374 0.580585 0
vt 0.324601 0.580584 0
vt 0.612372 0.580582 0
vt 0.480599 0.580585 0
vt 0.780478 0.550749 0
vt 0.624483 0.550757 0
vt 0.85847 0.550584 0
vt 0.156494 0.550758 0
vt 0.000500053 0.550753 0
vt 0.312489 0.550761 0
vt 0.468486 0.550762 0
vt 0.780474 0.479378 0
vt 0.624481 0.479385 0
vt 0.624478 0.408013 0
vt 0.780472 0.408007 0
vt 0.936458 0.40801 0
vt 0.886174 0.481411 0
vt 0.858467 0.470041 0
vt 0.858467 0.408007 0
vt 0.156496 0.479386 0
vt 0.000501692 0.479382 0
vt 0.000503451 0.40801 0
vt 0.156497 0.408014 0
vt 0.31249 0.479388 0
vt 0.312491 0.408017 0
vt 0.468485 0.479389 0
vt 0.468485 0.408017 0
vt 0.936459 0.550737 0
vt 0.89037 0.533672 0
vt 0.896929 0.504237 0
vt 0.936457 0.479374 0
vt 0.890192 0.284829 0
vt 0.782345 0.254997 0
vt 0.922661 0.5911 0
vt 0.93477 0.561282 0
vt 0.929559 0.570918 0
vt 0.924349 0.580555 0
vt 0.83076 0.481414 0
vt 0.826568 0.533677 0
vt 0.820006 0.504241 0
vt 0.830601 0.337467 0
vt 0.886336 0.337471 0
vt 0.897193 0.31432 0
vt 0.936462 0.336646 0
vt 0.858469 0.348951 0
vt 0.0443687 0.703782 0
vt 0.0676752 0.696442 0
vt 0.0886323 0.761378 0
vt 0.0751071 0.784328 0
vt 0.090128 0.69329 0
vt 0.10404 0.736319 0
vt 0.111867 0.685845 0
vt 0.122268 0.716297 0
vt 0.102876 0.958497 0
vt 0.0821722 0.948869 0
vt 0.100046 0.908451 0
vt 0.116336 0.929493 0
vt 0.0636867 0.94121 0
vt 0.0860585 0.882964 0
vt 0.0440161 0.933692 0
vt 0.073066 0.8596 0
vt 0.0214239 0.924569 0
vt 0.057417 0.839439 0
vt 0.022389 0.717115 0
vt 0.0588293 0.804166 0
vt 0.338699 0.715308 0
vt 0.361193 0.724236 0
vt 0.325778 0.80916 0
vt 0.310067 0.788894 0
vt 0.357792 0.932568 0
vt 0.334766 0.940565 0
vt 0.309189 0.865261 0
vt 0.325885 0.845559 0
vt 0.314761 0.947105 0
vt 0.29518 0.887731 0
vt 0.295947 0.953889 0
vt 0.279986 0.912386 0
vt 0.274815 0.9626 0
vt 0.262665 0.93298 0
vt 0.280195 0.690856 0
vt 0.300775 0.700411 0
vt 0.283146 0.74088 0
vt 0.266862 0.719705 0
vt 0.319141 0.707954 0
vt 0.297145 0.765995 0
vt 0.271342 0.870363 0
vt 0.110885 0.867006 0
vt 0.0951727 0.844239 0
vt 0.287751 0.849202 0
vt 0.0844948 0.822102 0
vt 0.299186 0.826716 0
vt 0.0965954 0.800471 0
vt 0.288104 0.803899 0
vt 0.113077 0.778472 0
vt 0.272739 0.782187 0
vt 0.131652 0.755681 0
vt 0.254848 0.759238 0
vt 0.14488 0.734144 0
vt 0.242678 0.73598 0
vt 0.239038 0.915535 0
vt 0.140425 0.913018 0
vt 0.128402 0.890713 0
vt 0.252322 0.892658 0
vt 0.0700527 0.679449 0
vt 0.0407481 0.687598 0
vt 0.0950902 0.678265 0
vt 0.111231 0.670157 0
vt 0.0831517 0.679232 0
vt 0.0738093 0.962032 0
vt 0.100608 0.973933 0
vt 0.0597999 0.955918 0
vt 0.0824854 0.964086 0
vt 0.0384591 0.948708 0
vt 0.0677101 0.956704 0
vt 0.0109493 0.937656 0
vt 0.0465453 0.950133 0
vt 0.0104948 0.707435 0
vt 0.372477 0.710469 0
vt 0.336478 0.69893 0
vt 0.331811 0.956949 0
vt 0.368543 0.946918 0
vt 0.310384 0.962504 0
vt 0.340078 0.955674 0
vt 0.295081 0.9691 0
vt 0.318426 0.961874 0
vt 0.276399 0.978157 0
vt 0.303891 0.967342 0
vt 0.309237 0.687413 0
vt 0.28244 0.675495 0
vt 0.323416 0.693465 0
vt 0.300576 0.685287 0
vt 0.344623 0.700553 0
vt 0.315468 0.692492 0

# 151 vertex normals
vn -0.0925408 -0.982723 0.160285
vn -0.185082 -0.982723 2.43028e-08
vn -0.0925408 -0.982723 -0.160285
vn -1.43098e-08 -0.987087 -0.160182
vn 0.0925408 -0.982723 -0.160285
vn 0.185082 -0.982723 -4.86056e-09
vn 0.0925408 -0.982723 0.160285
vn 0.491109 -0.174126 -0.853517
vn 0.5 5.30288e-17 -0.866025
vn 1 -2.68294e-24 4.38157e-08
vn 0.984918 -0.173022 1.17293e-08
vn 0.247281 -0.186203 -0.950884
vn 0.327583 0.0441817 -0.943789
vn -0.984918 -0.173022 1.11428e-07
vn -1 -5.03051e-24 8.21544e-08
vn -0.5 -5.2619e-09 -0.866025
vn -0.63723 -0.111943 -0.7625
vn -0.492459 -0.173022 0.852964
vn -0.5 -5.30288e-17 0.866025
vn 0.492459 -0.173022 0.852964
vn 0.5 -5.30288e-17 0.866025
vn -1.05951e-05 1 6.11708e-06
vn 1.05951e-05 1 -1.83512e-05
vn 1.05951e-05 1 -1.83512e-05
vn 0 1 6.12323e-17
vn 0.741168 -0.67132 1.65805e-07
vn 0.368919 -0.670655 -0.643522
vn -0.368919 -0.670655 -0.643522
vn -6.08471e-08 -0.691362 -0.722509
vn -0.741168 -0.671319 5.1017e-08
vn -0.370584 -0.67132 0.64187
vn 0.370584 -0.67132 0.64187
vn 0.00666397 -0.315066 -0.949046
vn -0.00547157 -0.383233 -0.923635
vn -0.985634 0.168893 1.03417e-17
vn -0.492817 0.168893 0.853584
vn -0.499998 -5.30288e-17 0.866026
vn -1 3.35367e-24 -5.47696e-08
vn 9.71358e-08 0.140055 0.990144
vn 9.81028e-08 -6.12323e-17 1
vn 0.492817 0.168893 0.853584
vn 0.985634 0.168893 -7.34501e-08
vn 1 5.36587e-24 -8.76314e-08
vn 0.499998 -5.30288e-17 0.866026
vn 0.492817 0.168893 -0.853584
vn 0.5 5.30288e-17 -0.866025
vn -0.492817 0.168893 -0.853584
vn -0.5 5.30288e-17 -0.866025
vn 0.38232 0.644065 -0.66258
vn 0.0508686 0.994811 -0.088107
vn 0.101737 0.994811 4.04624e-08
vn 0.764922 0.644123 1.67867e-07
vn -6.17647e-08 0.677829 -0.73522
vn 1.18972e-09 1 -4.45667e-07
vn -0.764922 0.644123 3.87386e-08
vn -0.101737 0.994811 5.29003e-08
vn -0.0508686 0.994811 -0.0881069
vn -0.38232 0.644065 -0.66258
vn -0.382461 0.644123 0.662442
vn -0.0508684 0.994811 0.0881068
vn 0.382461 0.644123 0.662442
vn 0.0508685 0.994811 0.0881068
vn -0.306139 0.790642 0.530249
vn -0.612279 0.790642 -5.06284e-09
vn 7.13557e-08 0.679352 0.733813
vn 0.612279 0.790642 3.03771e-08
vn 0.306139 0.790642 0.530249
vn 0.306139 0.790642 -0.530249
vn -0.306139 0.790642 -0.530249
vn 0.494025 0.152758 -0.855923
vn 0.988278 0.152663 -1.04558e-07
vn 0.00462977 0.407975 -0.912981
vn -0.988278 0.152662 2.67203e-07
vn -0.612576 0.189416 -0.76738
vn -0.494139 0.152663 0.855874
vn 0.494139 0.152663 0.855874
vn 0.5 5.30288e-17 -0.866025
vn 1 2.0122e-24 -3.28618e-08
vn 1 -6.70734e-25 1.09539e-08
vn 0.588044 4.95265e-17 -0.808829
vn -0.327327 8.79014e-09 -0.944911
vn -0.206863 -0.22408 -0.952363
vn 0.00180292 -0.293842 -0.955852
vn -7.10742e-08 1.21294e-08 -1
vn -1 -4.19209e-24 6.8462e-08
vn -0.59209 -1.31293e-08 -0.805872
vn -0.866025 3.06162e-17 -0.5
vn -1 -5.36587e-24 8.76314e-08
vn -0.5 -5.30288e-17 0.866025
vn 0.5 -5.30288e-17 0.866025
vn -2.90774e-07 2.36689e-08 -1
vn -0.246459 0.18605 -0.951127
vn -0.331749 -0.0483298 -0.942129
vn -3.18619e-07 6.12323e-17 -1
vn -0.232195 -0.170189 -0.957664
vn 0.203573 -0.216709 -0.954775
vn 0 6.12323e-17 -1
vn 0.233069 0.167666 -0.957897
vn 0.314243 -0.042311 -0.948399
vn 0.206981 0.222843 -0.952628
vn -0.203894 0.215702 -0.954935
vn -0.311198 0.0390234 -0.949543
vn -0.00167524 0.293234 -0.956039
vn 0.658373 0.652995 -0.374357
vn 0.936431 0.0419915 -0.348329
vn 0.995741 0.0921888 0.000868671
vn 0.740856 0.629678 -0.233748
vn 0.66974 -0.619212 -0.40991
vn 0.827469 -0.523355 0.203458
vn 0.00501626 -0.904222 -0.427034
vn 2.32812e-05 -0.947037 0.321123
vn -0.658503 -0.62229 -0.423236
vn -0.827296 -0.523762 0.203114
vn -0.919914 0.01143 -0.391952
vn -0.995727 0.0923428 0.00100035
vn -0.646951 0.64782 -0.402224
vn -0.740804 0.629812 -0.233553
vn 0.0156981 0.908385 -0.41784
vn -3.88404e-06 0.905517 -0.424309
vn 0.65011 -0.636651 -0.414768
vn -0.0210456 -0.892894 -0.449774
vn 8.00991e-06 -0.904912 -0.425598
vn 0.739884 -0.630526 -0.234539
vn -0.657697 -0.6487 -0.382913
vn -0.739996 -0.630241 -0.234952
vn -0.93263 -0.0378911 -0.358839
vn -0.995693 -0.0927035 0.000794234
vn -0.667676 0.619834 -0.412329
vn -0.826891 0.524441 0.20301
vn -0.00477672 0.903614 -0.42832
vn -5.12492e-05 0.947886 0.318609
vn 0.656901 0.62296 -0.424738
vn 0.826521 0.525307 0.202276
vn 0.917783 -0.0117643 -0.396909
vn 0.995662 -0.0930328 0.00107497
vn -0.996186 -0.00138697 -0.0872475
vn -0.99618 0.0011091 -0.0873157
vn -0.744536 0.233199 -0.625528
vn -0.744117 -0.233515 -0.625908
vn 3.4723e-05 0.419279 -0.907857
vn -7.35227e-05 -0.418321 -0.908299
vn 0.744544 0.23325 -0.625498
vn 0.744099 -0.233406 -0.62597
vn 0.996174 0.00114599 -0.0873833
vn 0.996198 -0.00130827 -0.0871041
vn 0.831273 -0.203721 0.517188
vn 0.830993 0.204096 0.51749
vn -0.000131681 -0.329394 0.944193
vn 0.000281033 0.331333 0.943514
vn -0.831191 -0.203603 0.517366
vn -0.831165 0.204349 0.517113

# Mesh 'Cylinder001_Cylinder001' with 288 faces
g Cylinder001_Cylinder001
usemtl DefaultMaterial
f 1/1/1 2/2/2 3/3/3
f 4/4/4 5/5/5 6/6/6
f 3/3/3 4/4/4 6/6/6
f 1/1/1 3/3/3 6/6/6
f 7/7/7 1/1/1 6/6/6
f 8/8/8 9/9/9 10/10/10
f 10/10/10 11/11/11 8/8/8
f 8/8/8 12/12/12 13/13/13
f 13/13/13 9/9/9 8/8/8
f 14/14/14 15/15/15 16/16/16
f 16/16/16 17/17/17 14/14/14
f 18/18/18 19/19/19 15/15/15
f 15/15/15 14/14/14 18/18/18
f 20/20/20 21/21/21 19/19/19
f 19/19/19 18/18/18 20/20/20
f 11/11/11 10/10/10 21/21/21
f 21/21/21 20/20/20 11/11/11
f 22/22/22 23/23/22 24/24/22
f 22/22/23 24/24/24 25/25/24
f 25/25/25 26/26/25 27/27/25
f 22/22/25 25/25/25 27/27/25
f 28/28/25 22/22/25 27/27/25
f 29/29/26 6/30/6 5/31/5
f 5/31/5 30/32/27 29/29/26
f 3/3/3 31/33/28 32/34/29
f 32/34/29 4/4/4 3/3/3
f 31/35/28 3/36/3 2/37/2
f 2/37/2 33/38/30 31/35/28
f 33/39/30 2/40/2 1/41/1
f 1/41/1 34/42/31 33/39/30
f 34/43/31 1/44/1 7/45/7
f 7/45/7 35/46/32 34/43/31
f 35/47/32 7/48/7 6/49/6
f 6/49/6 29/50/26 35/47/32
f 11/11/11 29/29/26 30/32/27
f 30/32/27 8/8/8 11/11/11
f 31/33/28 17/51/33 36/52/34
f 36/52/34 32/34/29 31/33/28
f 17/17/17 31/35/28 33/38/30
f 33/38/30 14/14/14 17/17/17
f 14/14/14 33/39/30 34/42/31
f 34/42/31 18/18/18 14/14/14
f 18/18/18 34/43/31 35/46/32
f 35/46/32 20/20/20 18/18/18
f 20/20/20 35/47/32 29/50/26
f 29/50/26 11/11/11 20/20/20
f 37/53/35 38/54/36 23/55/37
f 23/55/37 22/56/38 37/53/35
f 39/57/39 24/24/40 23/23/37
f 23/23/37 38/58/36 39/57/39
f 40/59/41 41/60/42 26/61/43
f 26/61/43 25/62/44 40/59/41
f 41/63/42 42/64/45 27/65/46
f 27/65/46 26/66/43 41/63/42
f 42/67/45 43/68/47 28/69/48
f 28/69/48 27/70/46 42/67/45
f 43/71/47 37/72/35 22/73/38
f 22/73/38 28/74/48 43/71/47
f 44/75/49 45/76/50 46/77/51
f 46/77/51 47/78/52 44/75/49
f 45/79/50 44/80/49 48/81/53
f 48/81/53 49/82/54 45/79/50
f 50/83/55 51/84/56 52/85/57
f 52/85/57 53/86/58 50/83/55
f 54/87/59 55/88/60 51/89/56
f 51/89/56 50/90/55 54/87/59
f 56/91/61 57/92/62 55/93/60
f 55/93/60 54/94/59 56/91/61
f 47/95/52 46/96/51 57/97/62
f 57/97/62 56/98/61 47/95/52
f 58/99/63 38/54/36 37/53/35
f 37/53/35 59/100/64 58/99/63
f 38/58/36 58/101/63 60/102/65
f 60/102/65 39/57/39 38/58/36
f 61/103/66 41/60/42 40/59/41
f 40/59/41 62/104/67 61/103/66
f 63/105/68 42/64/45 41/63/42
f 41/63/42 61/106/66 63/105/68
f 64/107/69 43/68/47 42/67/45
f 42/67/45 63/108/68 64/107/69
f 59/109/64 37/72/35 43/71/47
f 43/71/47 64/110/69 59/109/64
f 65/111/70 44/75/49 47/78/52
f 47/78/52 66/112/71 65/111/70
f 44/80/49 65/111/70 67/113/72
f 67/113/72 48/81/53 44/80/49
f 68/114/73 50/83/55 53/86/58
f 53/86/58 69/115/74 68/114/73
f 70/116/75 54/87/59 50/90/55
f 50/90/55 68/114/73 70/116/75
f 71/117/76 56/91/61 54/94/59
f 54/94/59 70/116/75 71/117/76
f 66/112/71 47/95/52 56/98/61
f 56/98/61 71/117/76 66/112/71
f 45/76/50 58/99/63 59/100/64
f 59/100/64 46/77/51 45/76/50
f 58/101/63 45/79/50 49/82/54
f 49/82/54 60/102/65 58/101/63
f 51/84/56 61/103/66 62/104/67
f 62/104/67 52/85/57 51/84/56
f 55/88/60 63/105/68 61/106/66
f 61/106/66 51/89/56 55/88/60
f 57/92/62 64/107/69 63/108/68
f 63/108/68 55/93/60 57/92/62
f 46/96/51 59/109/64 64/110/69
f 64/110/69 57/97/62 46/96/51
f 72/118/77 73/119/78 74/120/79
f 74/120/79 75/121/80 72/118/77
f 76/122/81 77/123/82 78/124/83
f 78/124/83 79/125/84 76/122/81
f 80/126/85 81/127/86 76/128/87
f 76/128/87 82/129/88 80/126/85
f 83/130/19 80/126/85 82/129/88
f 82/129/88 84/131/89 83/130/19
f 85/132/21 83/130/19 84/131/89
f 84/131/89 86/133/90 85/132/21
f 73/119/78 85/132/21 86/133/90
f 86/133/90 74/120/79 73/119/78
f 65/111/70 66/112/71 73/119/78
f 73/119/78 72/118/77 65/111/70
f 69/134/91 87/135/92 88/136/93
f 88/136/93 81/137/94 69/134/91
f 68/114/73 69/115/74 81/127/86
f 81/127/86 80/126/85 68/114/73
f 70/116/75 68/114/73 80/126/85
f 80/126/85 83/130/19 70/116/75
f 71/117/76 70/116/75 83/130/19
f 83/130/19 85/132/21 71/117/76
f 66/112/71 71/117/76 85/132/21
f 85/132/21 73/119/78 66/112/71
f 36/52/34 17/51/17 89/138/95
f 32/34/29 30/139/27 5/5/5
f 5/5/5 4/4/4 32/34/29
f 36/52/34 8/8/8 30/139/27
f 30/139/27 32/34/29 36/52/34
f 40/140/41 25/25/44 24/24/40
f 24/24/40 39/57/39 40/140/41
f 48/81/53 53/141/58 52/142/57
f 52/142/57 49/82/54 48/81/53
f 60/102/65 62/143/67 40/140/41
f 40/140/41 39/57/39 60/102/65
f 67/113/72 69/134/74 53/141/58
f 53/141/58 48/81/53 67/113/72
f 49/82/54 52/142/57 62/143/67
f 62/143/67 60/102/65 49/82/54
f 79/125/84 78/124/83 90/144/96
f 90/144/96 75/121/97 79/125/84
f 67/113/72 65/111/70 91/145/98
f 81/137/86 88/136/93 77/123/82
f 77/123/82 76/122/81 81/137/86
f 69/134/74 67/113/72 87/135/92
f 75/121/80 90/144/96 92/146/99
f 92/146/99 72/118/77 75/121/80
f 72/118/77 92/146/99 91/145/98
f 91/145/98 65/111/70 72/118/77
f 75/121/80 74/120/79 10/10/10
f 10/10/10 9/9/9 75/121/80
f 9/9/9 13/13/13 93/147/100
f 93/147/100 75/121/80 9/9/9
f 82/129/88 76/128/81 16/16/16
f 16/16/16 15/15/15 82/129/88
f 84/131/89 82/129/88 15/15/15
f 15/15/15 19/19/19 84/131/89
f 86/133/90 84/131/89 19/19/19
f 19/19/19 21/21/21 86/133/90
f 74/120/79 86/133/90 21/21/21
f 21/21/21 10/10/10 74/120/79
f 76/122/81 94/148/101 95/149/102
f 95/149/102 16/150/16 76/122/81
f 8/8/8 36/52/34 12/12/12
f 16/150/16 95/149/102 89/138/95
f 89/138/95 17/51/17 16/150/16
f 75/121/80 93/147/100 96/151/103
f 96/151/103 79/125/84 75/121/80
f 79/125/84 96/151/103 94/148/101
f 94/148/101 76/122/81 79/125/84
f 97/152/104 98/153/105 99/154/106
f 99/154/106 100/155/107 97/152/104
f 98/153/105 101/156/108 102/157/109
f 102/157/109 99/154/106 98/153/105
f 101/156/108 103/158/110 104/159/111
f 104/159/111 102/157/109 101/156/108
f 103/160/110 105/161/112 106/162/113
f 106/162/113 104/163/111 103/160/110
f 105/161/112 107/164/114 108/165/115
f 108/165/115 106/162/113 105/161/112
f 107/164/114 109/166/116 110/167/117
f 110/167/117 108/165/115 107/164/114
f 109/166/116 111/168/118 112/169/119
f 112/169/119 110/167/117 109/166/116
f 111/170/118 97/152/104 100/155/107
f 100/155/107 112/171/119 111/170/118
f 113/172/120 114/173/121 115/174/122
f 115/174/122 116/175/123 113/172/120
f 114/176/121 117/177/124 118/178/125
f 118/178/125 115/179/122 114/176/121
f 117/177/124 119/180/126 120/181/127
f 120/181/127 118/178/125 117/177/124
f 119/180/126 121/182/128 122/183/129
f 122/183/129 120/181/127 119/180/126
f 121/182/128 123/184/130 124/185/131
f 124/185/131 122/183/129 121/182/128
f 123/186/130 125/187/132 126/188/133
f 126/188/133 124/189/131 123/186/130
f 125/187/132 127/190/134 128/191/135
f 128/191/135 126/188/133 125/187/132
f 127/190/134 113/172/120 116/175/123
f 116/175/123 128/191/135 127/190/134
f 129/192/136 130/193/137 131/194/138
f 131/194/138 132/195/139 129/192/136
f 132/195/139 131/194/138 133/196/140
f 133/196/140 134/197/141 132/195/139
f 134/197/141 133/196/140 135/198/142
f 135/198/142 136/199/143 134/197/141
f 136/199/143 135/198/142 137/200/144
f 137/200/144 138/201/145 136/199/143
f 138/201/145 137/200/144 139/202/146
f 139/202/146 140/203/147 138/201/145
f 140/203/147 139/202/146 141/204/148
f 141/204/148 142/205/149 140/203/147
f 142/206/149 141/207/148 143/208/150
f 143/208/150 144/209/151 142/206/149
f 143/208/150 130/193/137 129/192/136
f 129/192/136 144/209/151 143/208/150
f 99/154/106 137/200/144 135/198/142
f 135/198/142 100/155/107 99/154/106
f 102/157/109 139/202/146 137/200/144
f 137/200/144 99/154/106 102/157/109
f 104/159/111 141/204/148 139/202/146
f 139/202/146 102/157/109 104/159/111
f 106/162/113 143/208/150 141/207/148
f 141/207/148 104/163/111 106/162/113
f 108/165/115 130/193/137 143/208/150
f 143/208/150 106/162/113 108/165/115
f 110/167/117 131/194/138 130/193/137
f 130/193/137 108/165/115 110/167/117
f 112/169/119 133/196/140 131/194/138
f 131/194/138 110/167/117 112/169/119
f 100/155/107 135/198/142 133/196/140
f 133/196/140 112/171/119 100/155/107
f 115/174/122 134/197/141 136/199/143
f 136/199/143 116/175/123 115/174/122
f 118/178/125 132/195/139 134/197/141
f 134/197/141 115/179/122 118/178/125
f 120/181/127 129/192/136 132/195/139
f 132/195/139 118/178/125 120/181/127
f 122/183/129 144/209/151 129/192/136
f 129/192/136 120/181/127 122/183/129
f 124/185/131 142/206/149 144/209/151
f 144/209/151 122/183/129 124/185/131
f 126/188/133 140/203/147 142/205/149
f 142/205/149 124/189/131 126/188/133
f 128/191/135 138/201/145 140/203/147
f 140/203/147 126/188/133 128/191/135
f 116/175/123 136/199/143 138/201/145
f 138/201/145 128/191/135 116/175/123
f 92/210/99 98/153/105 97/152/104
f 97/152/104 91/211/98 92/210/99
f 90/212/96 101/156/108 98/153/105
f 98/153/105 92/210/99 90/212/96
f 78/213/83 103/158/110 101/156/108
f 101/156/108 90/214/96 78/213/83
f 77/215/82 105/161/112 103/160/110
f 103/160/110 78/216/83 77/215/82
f 88/217/93 107/164/114 105/161/112
f 105/161/112 77/218/82 88/217/93
f 87/219/92 109/166/116 107/164/114
f 107/164/114 88/220/93 87/219/92
f 67/221/72 111/168/118 109/166/116
f 109/166/116 87/222/92 67/221/72
f 91/211/98 97/152/104 111/170/118
f 111/170/118 67/223/72 91/211/98
f 36/224/34 114/173/121 113/172/120
f 113/172/120 12/225/12 36/224/34
f 89/226/95 117/177/124 114/176/121
f 114/176/121 36/227/34 89/226/95
f 95/228/102 119/180/126 117/177/124
f 117/177/124 89/229/95 95/228/102
f 94/230/101 121/182/128 119/180/126
f 119/180/126 95/231/102 94/230/101
f 96/232/103 123/184/130 121/182/128
f 121/182/128 94/233/101 96/232/103
f 93/234/100 125/187/132 123/186/130
f 123/186/130 96/235/103 93/234/100
f 13/236/13 127/190/134 125/187/132
f 125/187/132 93/237/100 13/236/13
f 12/238/12 113/172/120 127/190/134
f 127/190/134 13/239/13 12/238/12

